<svg width="75" height="75" viewBox="0 0 75 75" fill="none" xmlns="http://www.w3.org/2000/svg">
<g id="SlashCircle" clip-path="url(#clip0_306_532)">
<path id="Vector" d="M37.5 70.3125C28.7976 70.3125 20.4516 66.8555 14.2981 60.7019C8.14452 54.5484 4.6875 46.2024 4.6875 37.5C4.6875 28.7976 8.14452 20.4516 14.2981 14.2981C20.4516 8.14452 28.7976 4.6875 37.5 4.6875C46.2024 4.6875 54.5484 8.14452 60.7019 14.2981C66.8555 20.4516 70.3125 28.7976 70.3125 37.5C70.3125 46.2024 66.8555 54.5484 60.7019 60.7019C54.5484 66.8555 46.2024 70.3125 37.5 70.3125ZM37.5 75C47.4456 75 56.9839 71.0491 64.0165 64.0165C71.0491 56.9839 75 47.4456 75 37.5C75 27.5544 71.0491 18.0161 64.0165 10.9835C56.9839 3.95088 47.4456 0 37.5 0C27.5544 0 18.0161 3.95088 10.9835 10.9835C3.95088 18.0161 0 27.5544 0 37.5C0 47.4456 3.95088 56.9839 10.9835 64.0165C18.0161 71.0491 27.5544 75 37.5 75Z" fill="#BFACE2"/>
<path id="Vector_2" opacity="0.9" d="M59.7187 36.6754C59.7077 36.3673 59.636 36.0644 59.5077 35.7841C59.3794 35.5037 59.1971 35.2515 58.9712 35.0417C58.7453 34.8319 58.4802 34.6688 58.1911 34.5617C57.9021 34.4545 57.5947 34.4054 57.2866 34.4172L17.5392 35.8914C17.2312 35.9029 16.9285 35.9748 16.6484 36.1032C16.3682 36.2316 16.1161 36.414 15.9064 36.6398C15.6968 36.8656 15.5336 37.1306 15.4263 37.4195C15.319 37.7083 15.2697 38.0155 15.2811 38.3235C15.3042 38.9455 15.5734 39.5328 16.0295 39.9563C16.2553 40.1659 16.5202 40.3291 16.8091 40.4364C17.098 40.5437 17.4052 40.593 17.7132 40.5816L57.4606 39.1074C57.7687 39.0964 58.0716 39.0247 58.3519 38.8964C58.6322 38.7681 58.8845 38.5858 59.0942 38.3599C59.304 38.134 59.4671 37.8689 59.5743 37.5798C59.6814 37.2908 59.7305 36.9834 59.7187 36.6754Z" fill="#BFACE2"/>
</g>
<defs>
<clipPath id="clip0_306_532">
<rect width="75" height="75" fill="white"/>
</clipPath>
</defs>
</svg>
