<svg width="75" height="75" viewBox="0 0 75 75" fill="none" xmlns="http://www.w3.org/2000/svg">
<path id="Union" opacity="0.6" fill-rule="evenodd" clip-rule="evenodd" d="M14.2981 60.7019C20.4516 66.8555 28.7976 70.3125 37.5 70.3125C46.2024 70.3125 54.5484 66.8555 60.7019 60.7019C66.8555 54.5484 70.3125 46.2024 70.3125 37.5C70.3125 28.7976 66.8555 20.4516 60.7019 14.2981C54.5484 8.14452 46.2024 4.6875 37.5 4.6875C28.7976 4.6875 20.4516 8.14452 14.2981 14.2981C8.14452 20.4516 4.6875 28.7976 4.6875 37.5C4.6875 46.2024 8.14452 54.5484 14.2981 60.7019ZM64.0165 64.0165C56.9839 71.0491 47.4456 75 37.5 75C27.5544 75 18.0161 71.0491 10.9835 64.0165C3.95088 56.9839 0 47.4456 0 37.5C0 27.5544 3.95088 18.0161 10.9835 10.9835C18.0161 3.95088 27.5544 0 37.5 0C47.4456 0 56.9839 3.95088 64.0165 10.9835C71.0491 18.0161 75 27.5544 75 37.5C75 47.4456 71.0491 56.9839 64.0165 64.0165ZM34.5455 42.3636V54.8182H39.6364V42.3636H52.0909V37.2727H39.6364V24.8182H34.5455V37.2727H22.0909V42.3636H34.5455Z" fill="#BFACE2"/>
</svg>
